<svg width="29" height="29" viewBox="0 0 29 29" fill="none" xmlns="http://www.w3.org/2000/svg">
<path d="M8.499 12.7485C7.71669 12.7485 7.0825 13.3827 7.0825 14.165C7.0825 14.9473 7.71669 15.5815 8.499 15.5815H19.831C20.6133 15.5815 21.2475 14.9473 21.2475 14.165C21.2475 13.3827 20.6133 12.7485 19.831 12.7485H8.499Z" fill="#B71000"/>
<path fill-rule="evenodd" clip-rule="evenodd" d="M28.33 14.165C28.33 21.9881 21.9881 28.33 14.165 28.33C6.34189 28.33 0 21.9881 0 14.165C0 6.34189 6.34189 0 14.165 0C21.9881 0 28.33 6.34189 28.33 14.165ZM25.497 14.165C25.497 20.4235 20.4235 25.497 14.165 25.497C7.90651 25.497 2.833 20.4235 2.833 14.165C2.833 7.90651 7.90651 2.833 14.165 2.833C20.4235 2.833 25.497 7.90651 25.497 14.165Z" fill="#B71000"/>
</svg>
