<svg width="29" height="29" viewBox="0 0 29 29" fill="none" xmlns="http://www.w3.org/2000/svg">
<path d="M14.1667 7.08333C14.9491 7.08333 15.5833 7.7176 15.5833 8.5V12.75H19.8333C20.6157 12.75 21.25 13.3843 21.25 14.1667C21.25 14.9491 20.6157 15.5833 19.8333 15.5833H15.5833V19.8333C15.5833 20.6157 14.9491 21.25 14.1667 21.25C13.3843 21.25 12.75 20.6157 12.75 19.8333V15.5833H8.5C7.7176 15.5833 7.08333 14.9491 7.08333 14.1667C7.08333 13.3843 7.7176 12.75 8.5 12.75H12.75V8.5C12.75 7.7176 13.3843 7.08333 14.1667 7.08333Z" fill="#AEAEAE"/>
<path fill-rule="evenodd" clip-rule="evenodd" d="M14.1667 28.3333C21.9907 28.3333 28.3333 21.9907 28.3333 14.1667C28.3333 6.34263 21.9907 0 14.1667 0C6.34263 0 0 6.34263 0 14.1667C0 21.9907 6.34263 28.3333 14.1667 28.3333ZM14.1667 25.5C20.4259 25.5 25.5 20.4259 25.5 14.1667C25.5 7.90744 20.4259 2.83333 14.1667 2.83333C7.90744 2.83333 2.83333 7.90744 2.83333 14.1667C2.83333 20.4259 7.90744 25.5 14.1667 25.5Z" fill="#AEAEAE"/>
</svg>
