<svg width="34" height="34" viewBox="0 0 34 34" fill="none" xmlns="http://www.w3.org/2000/svg">
<path d="M17 9.91683C17.7824 9.91683 18.4166 10.5511 18.4166 11.3335V15.5835H22.6666C23.449 15.5835 24.0833 16.2178 24.0833 17.0002C24.0833 17.7826 23.449 18.4168 22.6666 18.4168H18.4166V22.6668C18.4166 23.4492 17.7824 24.0835 17 24.0835C16.2176 24.0835 15.5833 23.4492 15.5833 22.6668V18.4168H11.3333C10.5509 18.4168 9.91665 17.7826 9.91665 17.0002C9.91665 16.2178 10.5509 15.5835 11.3333 15.5835H15.5833V11.3335C15.5833 10.5511 16.2176 9.91683 17 9.91683Z" fill="#191919"/>
<path fill-rule="evenodd" clip-rule="evenodd" d="M17 31.1668C24.824 31.1668 31.1666 24.8242 31.1666 17.0002C31.1666 9.17613 24.824 2.8335 17 2.8335C9.17595 2.8335 2.83331 9.17613 2.83331 17.0002C2.83331 24.8242 9.17595 31.1668 17 31.1668ZM17 28.3335C23.2592 28.3335 28.3333 23.2594 28.3333 17.0002C28.3333 10.7409 23.2592 5.66683 17 5.66683C10.7408 5.66683 5.66665 10.7409 5.66665 17.0002C5.66665 23.2594 10.7408 28.3335 17 28.3335Z" fill="#191919"/>
</svg>
